<svg width="110" height="25" viewBox="0 0 110 25" fill="none" xmlns="http://www.w3.org/2000/svg">
<path d="M12.1968 1.0958C13.769 1.0958 14.579 1.85811 14.579 3.3827C14.579 5.3361 13.102 7.81357 3.85914 8.7188C5.57431 4.09736 8.90937 1.0958 12.1968 1.0958ZM13.3402 18.3428C11.5774 20.9632 9.67167 22.3925 7.38477 22.3925C4.66908 22.3925 2.76333 20.4868 2.76333 15.1983C2.76333 13.0544 3.09684 11.0533 3.66857 9.29052C13.5785 9.43345 16.8659 6.47955 16.8659 3.43035C16.8659 1.19109 15.0078 0.23822 12.6732 0.23822C5.86018 0.23822 0 8.29001 0 16.1036C0 21.0585 2.33454 24.2983 6.19368 24.2983C9.43345 24.2983 12.2444 21.9637 13.8167 18.581L13.3402 18.3428Z" fill="#23231A"/>
<path d="M28.0688 1.19109C27.3065 0.762299 25.7343 0.23822 23.8762 0.23822C20.6841 0.23822 17.8254 2.09632 17.8254 6.05075C17.8254 12.1491 24.8767 13.8167 24.8767 19.0098C24.8767 21.6779 23.1615 23.4407 20.9223 23.4407C18.6354 23.4407 16.4914 21.3444 15.0145 17.0088L14.6333 17.1041L14.7762 22.4878C16.1579 23.6789 18.2066 24.2983 20.3029 24.2983C23.9238 24.2983 26.7825 22.1067 26.7825 17.914C26.7825 11.3868 19.6359 9.57639 19.6359 4.76437C19.6359 2.71569 20.827 1.0958 22.8757 1.0958C24.5909 1.0958 26.2584 2.23925 27.8306 5.81253L28.2118 5.71724L28.0688 1.19109Z" fill="#23231A"/>
<path d="M40.3892 1.19109C39.6269 0.762299 38.0547 0.23822 36.1966 0.23822C33.0044 0.23822 30.1458 2.09632 30.1458 6.05075C30.1458 12.1491 37.1971 13.8167 37.1971 19.0098C37.1971 21.6779 35.4819 23.4407 33.2426 23.4407C30.9558 23.4407 28.8118 21.3444 27.3348 17.0088L26.9537 17.1041L27.0966 22.4878C28.4783 23.6789 30.527 24.2983 32.6233 24.2983C36.2442 24.2983 39.1028 22.1067 39.1028 17.914C39.1028 11.3868 31.9563 9.57639 31.9563 4.76437C31.9563 2.71569 33.1474 1.0958 35.196 1.0958C36.9112 1.0958 38.5787 2.23925 40.151 5.81253L40.5321 5.71724L40.3892 1.19109Z" fill="#23231A"/>
<path d="M52.2752 1.0958C53.8474 1.0958 54.6574 1.85811 54.6574 3.3827C54.6574 5.3361 53.1804 7.81357 43.9375 8.7188C45.6527 4.09736 48.9878 1.0958 52.2752 1.0958ZM53.4186 18.3428C51.6558 20.9632 49.7501 22.3925 47.4632 22.3925C44.7475 22.3925 42.8417 20.4868 42.8417 15.1983C42.8417 13.0544 43.1752 11.0533 43.747 9.29052C53.6569 9.43345 56.9443 6.47955 56.9443 3.43035C56.9443 1.19109 55.0862 0.23822 52.7516 0.23822C45.9386 0.23822 40.0784 8.29001 40.0784 16.1036C40.0784 21.0585 42.4129 24.2983 46.2721 24.2983C49.5119 24.2983 52.3228 21.9637 53.8951 18.581L53.4186 18.3428Z" fill="#23231A"/>
<path d="M67.9146 24.0124L73.3936 23.2978V23.2025C70.7732 22.9166 70.7256 21.6779 71.4879 18.1046L74.0607 6.67012C74.9659 2.66805 73.8224 0.23822 71.1544 0.23822C67.2476 0.23822 63.0073 5.47903 59.9581 12.4827L62.7215 0L57.9571 1.57224V1.66753C58.6717 2.6204 59.5293 4.28794 58.8147 7.33713L57.0042 15.8177C56.2895 19.2481 55.9084 21.535 54.5744 23.4883V23.5836H58.767V23.4883C58.2429 21.7255 58.3859 20.1533 58.91 17.7235L59.3864 15.6271C63.722 5.90782 67.3905 2.09632 69.9156 2.09632C71.869 2.09632 72.2978 4.19265 71.7738 6.52719L67.9146 24.0124Z" fill="#23231A"/>
<path d="M89.1075 17.1041C86.9635 21.4873 84.7719 22.2496 82.8662 22.2496C79.3882 22.2496 77.6254 19.6292 77.6254 14.3884C77.6254 5.76489 82.628 1.0958 85.9154 1.0958C88.2976 1.0958 89.7269 3.57328 90.8703 6.24133L91.3468 6.14604L90.9656 1.47696C90.4415 1.09581 88.9646 0.23822 86.8206 0.23822C80.3411 0.23822 74.862 7.67064 74.862 15.4366C74.862 20.5344 77.1966 24.2983 81.6751 24.2983C85.6295 24.2983 88.2499 21.4397 89.5839 17.2947L89.1075 17.1041Z" fill="#23231A"/>
<path d="M102.496 1.0958C104.069 1.0958 104.879 1.85811 104.879 3.3827C104.879 5.3361 103.402 7.81357 94.1589 8.7188C95.874 4.09736 99.2091 1.0958 102.496 1.0958ZM103.64 18.3428C101.877 20.9632 99.9714 22.3925 97.6845 22.3925C94.9688 22.3925 93.063 20.4868 93.063 15.1983C93.063 13.0544 93.3965 11.0533 93.9683 9.29052C103.878 9.43345 107.166 6.47955 107.166 3.43035C107.166 1.19109 105.307 0.23822 102.973 0.23822C96.1599 0.23822 90.2997 8.29001 90.2997 16.1036C90.2997 21.0585 92.6342 24.2983 96.4934 24.2983C99.7332 24.2983 102.544 21.9637 104.116 18.581L103.64 18.3428Z" fill="#23231A"/>
<path d="M107.761 23.7266C109.047 23.7266 110 22.7737 110 21.4873C110 20.2009 109.047 19.2481 107.761 19.2481C106.57 19.2481 105.521 20.2009 105.521 21.4873C105.521 22.7737 106.57 23.7266 107.761 23.7266Z" fill="#23231A"/>
</svg>
