<svg width="32" height="32" viewBox="0 0 32 32" fill="none" xmlns="http://www.w3.org/2000/svg">
<path fill-rule="evenodd" clip-rule="evenodd" d="M24.7234 13.6265V13.6269C24.7241 16.5913 23.5498 19.4351 21.4578 21.5353C19.3657 23.6354 16.5265 24.8207 13.5621 24.8314L13.5636 25.2314L13.5617 24.8314C11.3407 24.8421 9.16649 24.1932 7.31474 22.9668C5.46299 21.7404 4.01704 19.9919 3.16017 17.9428C2.3033 15.8937 2.0741 13.6364 2.50162 11.4569C2.92913 9.27741 3.99412 7.27392 5.56159 5.70039C7.12905 4.12686 9.12841 3.05413 11.3062 2.6182C13.484 2.18226 15.7423 2.40273 17.7946 3.25168C19.847 4.10062 21.6011 5.5398 22.8346 7.3868C24.0681 9.2338 24.7255 11.4054 24.7234 13.6265ZM8.11985 5.46792C9.73481 4.40109 11.6301 3.83771 13.5656 3.84919C16.1499 3.8601 18.6244 4.89574 20.4461 6.7289C22.2677 8.56197 23.2877 11.0428 23.2825 13.627C23.2819 15.5626 22.7066 17.4545 21.6296 19.0628C20.5525 20.6711 19.0223 21.9235 17.2327 22.6611C15.4431 23.3988 13.4748 23.5885 11.5773 23.2062C9.67979 22.824 7.93847 21.887 6.57408 20.514C5.20968 19.141 4.28364 17.3938 3.91333 15.494C3.54301 13.5941 3.7451 11.627 4.49397 9.84211C5.24285 8.0572 6.50479 6.53482 8.11985 5.46792Z" fill="#23231A"/>
<path fill-rule="evenodd" clip-rule="evenodd" d="M28.3967 29.9875L29.9801 28.4012L29.9801 28.4012L28.3967 29.9875ZM28.3956 29.4223L29.4139 28.4023L22.2455 21.2754L21.2277 22.2932L28.3956 29.4223Z" fill="#23231A"/>
</svg>
