<svg width="32" height="32" viewBox="0 0 32 32" fill="none" xmlns="http://www.w3.org/2000/svg">
<path fill-rule="evenodd" clip-rule="evenodd" d="M3.76495 30.7L3.76292 30.7001C3.66576 30.7007 3.56953 30.6811 3.48035 30.6426C3.39139 30.6041 3.3114 30.5476 3.24543 30.4766C3.1802 30.4054 3.13039 30.3215 3.09914 30.2302C3.06781 30.1386 3.05589 30.0406 3.06398 29.9442L4.79899 8.44405C4.8131 8.26827 4.89303 8.10429 5.02281 7.98489C5.15259 7.8655 5.32361 7.79948 5.49995 7.80005H9.29995V7.50005C9.29995 5.85571 9.95317 4.27871 11.1159 3.11599C12.2786 1.95326 13.8556 1.30005 15.5 1.30005C17.1443 1.30005 18.7213 1.95326 19.884 3.11599C21.0467 4.27871 21.7 5.85571 21.7 7.50005V7.80005L25.5009 7.80005C25.6773 7.79948 25.8473 7.8655 25.9771 7.98489C26.1069 8.10429 26.1868 8.26833 26.2009 8.44411L27.9309 29.9441L27.931 29.9451C27.9391 30.0416 27.9271 30.1386 27.8958 30.2302C27.8645 30.3215 27.8148 30.4053 27.7496 30.4765C27.684 30.5471 27.6045 30.6034 27.5162 30.6419C27.4276 30.6804 27.3315 30.7002 27.235 30.7001L3.76495 30.7ZM10.7 7.80005H20.3V7.50005C20.3 6.8697 20.1758 6.24553 19.9346 5.66317C19.6934 5.08081 19.3398 4.55166 18.8941 4.10594C18.4483 3.66021 17.9192 3.30665 17.3368 3.06543C16.7545 2.8242 16.1303 2.70005 15.5 2.70005C14.2269 2.70005 13.006 3.20576 12.1058 4.10594C11.2057 5.00611 10.7 6.22701 10.7 7.50005V7.80005ZM24.8568 9.20005H6.14314L4.52483 29.3H26.4751L24.8568 9.20005Z" fill="#23231A"/>
</svg>
